# xmcd CD database file
#
# Track frame offsets:
#	150
#	14170
#	30165
#	54716
#	69311
#	90862
#	104934
#	122615
#	138830
#	149661
#	182618
#	204464
#	229811
#
# Disc length: 3570 seconds
#
# Revision: 0
# Processed by: cddbd v1.5.2PL0 Copyright (c) Steve Scherf et al.
# Submitted via: CDex 1.51
#
DISCID=b50df00d
DTITLE=Susan Tedeschi - The Best of Susan Tedeschi - Episode Two
DYEAR=2007
DGENRE=Blues
TTITLE0=Can't Leave You Alone
TTITLE1=I Fell In Love
TTITLE2=Angel FromMontgomery
TTITLE3=Hampmotized
TTITLE4=(Mama) He Treats Your Daughter Mean
TTITLE5=Wrapped In The Arms Of Another
TTITLE6=Friar's Point
TTITLE7='Til I Found You
TTITLE8=Found Someone New
TTITLE9=The Feeling Music Brings
TTITLE10=Wait For Me
TTITLE11=Voodoo Woman (Live)
TTITLE12=Lost Lover Blues (Live)
EXTD=YEAR: 2007
EXTT0=
EXTT1=
EXTT2=
EXTT3=
EXTT4=
EXTT5=
EXTT6=
EXTT7=
EXTT8=
EXTT9=
EXTT10=
EXTT11=
EXTT12=
PLAYORDER=
